<?xml version="1.0" encoding="UTF-8"?>
<svg xmlns="http://www.w3.org/2000/svg" viewBox="0 0 500 500">

  <defs>
    <style>
      .cls-1 {
        fill: #357cc1;
      }

      .cls-2 {
        fill: #367cc0;
      }

      .cls-3 {
        fill: #2d82d6;
      }

      .cls-4 {
        fill: #367bc0;
      }

      .cls-5 {
        fill: #2b84dc;
      }

      .cls-6 {
        fill: #3d75ac;
      }

      .cls-7 {
        fill: #337ec7;
      }

      .cls-8 {
        fill: #317fcc;
      }

      .cls-9 {
        fill: #327eca;
      }

      .cls-10 {
        fill: #2b85dd;
      }

      .cls-11 {
        fill: #387abb;
      }

      .cls-12 {
        fill: #3180ce;
      }

      .cls-13 {
        fill: #fefefe;
      }
    </style>
  </defs>
  <rect class="cls-13" width="500" height="500"/>
  <path class="cls-9" d="M272,225c-31.83,2.66-64.4,10.23-86.1,35.47l-3.9,1.53c-5.48,9.7-10.71,19.69-14.21,30.33l-2.79,2.67c-.77.03-1.91.03-2.12-.51-.93-2.45-1.24-7.29-1.3-9.83-10.04-6.26-19.73-13.01-29.09-20.24-2.41.02-4.24-.46-5.49-1.42,6.63-44.77,47.14-77.51,92.49-74.99,16.48.92,46.73,9.83,59.42,20.58,11.3,9.57,7.67,16.85-6.91,16.41Z"/>
  <path class="cls-5" d="M165,295l1.35,3.17c-1.44,7.55-1.67,15.26-1.45,22.92l-1.9,2.91c2.17,5.7,3.76,11.64,4.74,17.82l5.19,15.84-.93,3.34,5.4,8.4c6.88,16.59,16.85,31.54,27.04,46.25l.56,4.35c-1.98.02-2.77-1.35-4.02-2.48-32.37-29.39-72.62-80.27-74.98-125.52-1.02-7.28-1.03-14.72,0-22,.17-3.08.64-4.59,1-7,6.61-3.18,8.06,1.76,12.06,4.44,1.86,1.24,4.05,1.85,5.88,3.12,5.75,4,11.31,9.98,18.07,12.93l1.99,11.51Z"/>
  <path class="cls-7" d="M366,260c-9.5,21.33-23.67,34.72-45,44l-3.65-.06-42.63-29.03c-2.15-4.16.61-7.46,8.28-9.91l1.03-3.05c17.36-8.41,31.96-20.71,41.49-37.84l3.49-2.1,1.64,2.03c-1.54,3.91-2.71,7.89-3.5,11.92,10.72,6.72,21.11,13.94,31.17,21.64,2.43,1.13,5,1.93,7.7,2.41Z"/>
  <path class="cls-2" d="M271,98l2.24,1.08c8.47-2.9,13.2,1.46,18.91,7.14,8.67,9.15,16.12,19.48,23.16,29.82,9.62-2.2,10.95-.92,14.7,7.95,4.2.45,7.78,13.05,5,16,6.49,12.93,5.47,47.06-2.89,58.29-.74.99-1.97,1.41-3.11,1.71-1.75-.32-2.45-2.21-2.1-5.69-4.99.78-7.11-2.61-6.35-10.15,2.31-7.01-1.47-49.39-8.66-49.74-11.67,3.1-23.28,6.54-34.84,10.3l-2.04-1.73c-9.13-23.3-10.61-40.7-4-65Z"/>
  <path class="cls-6" d="M329,220c2.03.22,1.96,1.23,0,2-7.49,13.67-16.85,24.91-29.87,33.63-5.18,3.47-11.02,5.84-16.13,9.37-12.66,7.62-27.4,11.06-41.97,12.9-3.33.42-11.21.83-12.03-2.9,27.18-5.54,60.34-14.44,78.51-36.99,5.79-7.19,2.73-8.62-.99-16.03-9.98-19.88-23.28-37.95-31.52-58.98,10.89-1.18,26.78-10,36.94-10.56,7.08-.39,10.8,27.83,11.11,33.01.38,6.31-1.37,21.18.11,25.89.85,2.73,3.11.57,4.24.85,2.36.56,1.64,5.7,1.61,7.8Z"/>
  <path class="cls-3" d="M371,192c6.39,25.01,5.59,44.2-5,68-1.65,1.03-3.51,1.24-5.41.98-3.07-.42-20.55-14.47-24.66-17.41-2.07-1.48-9.52-5.08-10.46-6.58-1.64-2.64,3.05-10.76,3.53-14.99.07-.65-.01-1.34,0-2,9.31-17.25,10-41.09,6-60,1.62-1.07,2.49-.99,3.35.72,3.07,10.69,4.46,12.36,13.02,19.08,6.04,4.74,12.53,9.32,19.63,12.2Z"/>
  <path class="cls-4" d="M283,265c-1.8,1.24-8.69,5.97-7.56,8.02l45.56,30.98c-29.94,13.02-65.39,8.66-93.31-8.19-13.33-8.05-22.01-21.23,1.31-20.81,2.44.04,4.79,1.11,7.5,1.09,15.47-.1,31.91-6.67,46.5-11.09Z"/>
  <path class="cls-11" d="M182,262l1.59,1.46c-3.8,5.51-4.26,8.75-1.38,9.74-.15,9.29-.94,18.62-2.35,28.01-1.22,11.89-.44,23.64,4.32,34.53,11.81-2.15,23.51-5.28,35.1-9.4l1.73,1.66c6.32,13.9,11.69,28.52,12,44-1.56.53-2.63-.36-3.23-2.67l-25.29,7.84c-10.31,1.47-18.15-15.22-21.79-23.52l-8.61-24.39c-7.25,2.4-9.31,3-11.09-5.26-.4-9.41-.24-19.84,2-29,3.07-12.52,9.11-23.23,17-33Z"/>
  <path class="cls-6" d="M272,225c-23.88,4.55-50.33,11.3-69.47,27.03-2.56,2.11-12.13,11.49-13.02,14.03-1.27,3.64,2.23,8.49,3.97,11.96,8.53,16.98,19.62,32.61,27.52,49.98-5.55,1.02-34.9,11.69-37.85,9.84-1.21-.76-4.55-12.38-4.9-14.59-2.54-15.98,1.18-33.26,2.67-49.2-6.82.76-.11-8.36,1.07-12.04,21.97-27.17,56.37-37.99,90-37Z"/>
  <path class="cls-10" d="M371,192c-.95,1.88-3.32.85-4.73.24-3.82-1.65-24.41-16.31-25.78-19.22-1.87-3.96-1.67-10.08-5.49-13.01-.87-4.13-3.07-12.46-5-16-10.13-21.6-20.55-42.37-34.86-61.56l-.14-2.44c34.81,29.39,64.52,67.09,76,112Z"/>
  <path class="cls-1" d="M163,324c1.69.99,1.83,4.36,3.65,4.9,2.47.72,6.88-3.14,8.85-.95,2.07,2.3,7.4,21.37,9.64,26.41,1.57,3.53,3.74,7.96,5.83,11.17s7.25,10.62,11.05,10.06c9.11-1.34,20-7.15,29.46-8.6-.02,1.52,1.37,3.86,1.51,5.01,1.4,11.24-1.7,23.36-5,34-8.98-2.1-16.91-7.68-23.03-14.65-5.93-8.1-12.44-15.63-19.54-22.59-6.08,2.71-10.55.13-13.43-7.75-4.68-13.11-8.39-22.73-9-37Z"/>
  <path class="cls-8" d="M295,80c6.86,9.33,14.4,19.06,20.17,29.33,6.05,10.76,11.35,22.85,14.83,34.67-.29-.54-5.26-6.74-5.68-6.88-2.99-1-7.14,2.3-10.32.37-5.91-8.26-24.29-35.43-33.74-37.33-3.46-.7-10.35,3.67-9.26-2.16,2.99-11,9.66-37.52,24-18Z"/>
  <path class="cls-12" d="M172,361c4.69,4.85,5.81,9.37,13.51,5.38,10.25,7.35,16.16,20.13,25.96,28.64,4.78,4.15,8.14,5.73,13.79,8.26,1.49.67,3.27.14,2.73,2.71-1.51,4.88-4.92,16.88-9.08,19.42-5.41,3.3-10.81-.89-13.92-5.42-13.77-20.09-24.54-35.29-33-59Z"/>
  <path class="cls-9" d="M126,292c-1.67-6.45-1.67-15.55,0-22-.37,6.77-.35,15.22,0,22Z"/>
</svg>